<?xml version="1.0" standalone="no"?>
<!DOCTYPE svg PUBLIC "-//W3C//DTD SVG 20010904//EN"
    "http://www.w3.org/TR/2001/REC-SVG-20010904/DTD/svg10.dtd">
<svg version="1.0" xmlns="http://www.w3.org/2000/svg"
     width="700.000000pt" height="700.000000pt" viewBox="0 0 700.000000 700.000000"
     preserveAspectRatio="xMidYMid meet">
  <metadata>
    Created by potrace 1.14, written by Peter Selinger 2001-2017
  </metadata>
  <g transform="translate(0.000000,700.000000) scale(0.100000,-0.100000)"
     fill="#000000" stroke="none">
    <path d="M4096 6335 c-30 -11 -113 -55 -433 -232 -24 -12 -63 -34 -87 -48 -25
-14 -154 -85 -288 -158 -961 -527 -1441 -794 -1466 -816 -89 -78 -92 -232 -6
-313 24 -22 204 -125 549 -313 39 -21 111 -61 160 -88 50 -28 115 -64 145 -80
30 -17 141 -78 245 -135 105 -58 213 -117 240 -132 28 -15 70 -39 95 -52 25
-14 79 -43 120 -66 41 -22 185 -102 320 -176 l245 -135 1 -1166 c1 -641 -2
-1167 -5 -1169 -3 -2 -46 18 -96 46 -49 27 -119 66 -155 85 -67 37 -152 83
-205 113 -16 9 -69 38 -116 63 l-87 47 -20 -37 c-11 -21 -58 -107 -105 -192
l-85 -155 37 -19 c20 -11 79 -43 131 -72 153 -85 802 -441 840 -460 21 -11 56
-18 87 -17 57 0 77 9 303 134 74 41 171 94 215 118 44 24 115 63 157 87 43 23
80 43 84 43 4 0 15 6 23 14 9 7 57 35 106 61 154 82 290 157 300 165 6 4 48
27 95 52 47 25 126 67 175 95 50 27 122 67 160 88 39 21 149 81 245 135 96 53
211 116 255 140 227 122 267 157 281 248 4 26 7 695 7 1488 l0 1441 -22 45
c-11 25 -31 54 -44 66 -22 21 -143 90 -522 297 -22 12 -76 41 -120 65 -44 24
-122 68 -174 97 -51 29 -95 53 -97 53 -1 0 -78 42 -171 93 -92 52 -199 111
-238 132 -74 40 -153 84 -220 121 -22 13 -62 35 -90 50 -59 31 -104 56 -285
156 -149 83 -264 145 -325 176 -50 26 -113 33 -159 17z m189 -531 c70 -37 208
-114 275 -151 19 -11 76 -41 125 -68 50 -27 107 -59 127 -72 21 -13 40 -23 42
-23 2 0 60 -31 128 -68 68 -38 220 -122 338 -187 118 -65 229 -126 245 -135
17 -9 94 -51 173 -94 78 -43 142 -81 142 -84 0 -4 -40 -28 -88 -54 -48 -27
-116 -64 -152 -84 -36 -20 -128 -70 -205 -112 -77 -43 -149 -82 -160 -89 -11
-7 -27 -15 -35 -19 -18 -9 -324 -177 -595 -327 -110 -61 -220 -122 -245 -135
-25 -13 -67 -37 -95 -52 -157 -88 -146 -86 -225 -40 -46 27 -176 99 -240 133
-19 10 -53 29 -75 41 -22 12 -76 42 -120 65 -44 24 -84 47 -90 51 -5 4 -55 31
-110 60 -55 29 -104 56 -110 60 -5 4 -104 59 -220 122 -294 161 -520 285 -590
325 -33 19 -68 37 -77 40 -35 11 -52 0 342 216 19 11 105 58 190 104 85 47
169 93 185 103 17 10 59 33 95 52 36 20 81 44 100 55 19 11 64 36 100 55 36
19 151 82 255 140 105 58 231 127 280 153 50 27 106 58 125 71 34 21 36 21 65
4 17 -10 62 -35 100 -56z m1840 -2429 l0 -1167 -135 -75 c-74 -41 -169 -93
-210 -115 -41 -23 -133 -73 -205 -113 -109 -61 -233 -129 -490 -270 -418 -230
-683 -375 -695 -379 -13 -6 -15 128 -15 1163 l0 1170 259 143 c143 79 289 159
325 179 36 19 116 62 176 96 61 33 142 77 180 98 39 21 75 41 80 45 10 7 81
46 210 115 39 21 75 41 80 45 6 4 48 28 95 53 47 25 141 77 210 115 69 38 127
68 130 67 3 -2 5 -528 5 -1170z"/>
    <path d="M439 3916 c-1 -25 -1 -398 0 -408 1 -5 394 -8 875 -8 l874 0 -1 218
-2 217 -872 1 -873 1 -1 -21z"/>
    <path d="M1344 3060 l-29 -5 -2 -213 c-1 -116 1 -213 5 -213 39 -7 1735 -2
1740 5 7 12 6 415 -1 423 -8 7 -1671 10 -1713 3z"/>
    <path d="M875 1969 l0 -219 875 0 875 0 -1 213 c-1 116 -2 215 -3 219 0 4
-394 7 -874 7 l-872 0 0 -220z"/>
  </g>
</svg>
